<?xml version="1.0" encoding="UTF-8"?>
<svg version="1.1" xmlns="http://www.w3.org/2000/svg" width="730" height="540">
<path d="M0 0 C10.70426106 7.29536562 14.28885136 20.23938123 18 32 C18.30502441 32.95213379 18.61004883 33.90426758 18.92431641 34.88525391 C19.89927354 37.94064297 20.85928208 41.00026298 21.8125 44.0625 C22.11478516 45.02575195 22.41707031 45.98900391 22.72851562 46.98144531 C24.36432819 52.35492115 25.40013379 57.42059927 26 63 C26.33 63.33 26.66 63.66 27 64 C32.28473964 92.03408102 34.01259094 121.76978086 24 149 C23.44831039 150.59819701 22.89889776 152.19718152 22.3515625 153.796875 C17.55717163 167.59193935 12.66909408 180.9758689 6 194 C-5.74797497 217.13009605 -6.44465775 242.96502043 1.05078125 267.4296875 C2.91740632 272.53384977 2.91740632 272.53384977 7 276 C9.81782472 276.55200464 12.59978543 277.02306763 15.4375 277.4375 C22.75650992 278.58978712 29.85281463 280.02489959 37 282 C38.50776074 282.39082475 40.01557824 282.78143055 41.5234375 283.171875 C51.68411571 285.87143448 61.482392 289.1683289 71.25 293.0625 C72.28471436 293.4737915 73.31942871 293.88508301 74.38549805 294.30883789 C80.5247488 296.81411505 86.27252986 299.66857474 92 303 C93.17135691 303.64394708 94.34441821 304.28480813 95.51953125 304.921875 C103.44532591 309.32196029 111.17696274 313.97673267 118 320 C118 320.66 118 321.32 118 322 C118.66 322 119.32 322 120 322 C120 322.99 120 323.98 120 325 C115.44461139 324.66869901 111.98391173 324.13433259 107.90234375 322.0625 C102.70232476 319.67904643 97.64627559 318.91289147 92 318.25 C91.06671875 318.12496094 90.1334375 317.99992187 89.171875 317.87109375 C81.75103509 316.92794231 74.27044052 316.1376659 66.9375 318 C66.18339844 318.185625 65.42929687 318.37125 64.65234375 318.5625 C64.10707031 318.706875 63.56179688 318.85125 63 319 C63 319.66 63 320.32 63 321 C61.25 322.125 61.25 322.125 59 323 C56.33024478 322.05773345 55.01384202 321.01384202 53 319 C52.34 318.67 51.68 318.34 51 318 C51 317.34 51 316.68 51 316 C49.9275 315.855625 48.855 315.71125 47.75 315.5625 C45.08337051 315.16250558 42.58600271 314.72408076 40 314 C40 313.34 40 312.68 40 312 C39.36191406 312.01160156 38.72382813 312.02320313 38.06640625 312.03515625 C36.82697266 312.04869141 36.82697266 312.04869141 35.5625 312.0625 C34.73878906 312.07410156 33.91507812 312.08570313 33.06640625 312.09765625 C31 312 31 312 30 311 C7.15687112 307.56475449 -22.07491037 304.58631475 -43 316 C-48.89655172 319 -48.89655172 319 -51 319 C-51 319.66 -51 320.32 -51 321 C-52.390625 322.54296875 -52.390625 322.54296875 -54.25 324.1875 C-55.15492188 325.01314453 -55.15492188 325.01314453 -56.078125 325.85546875 C-58 327 -58 327 -59.94921875 326.9765625 C-62.83864059 325.60064734 -64.4424637 323.57297742 -66.5625 321.1875 C-71.58818677 315.95240962 -76.14778328 313.97731844 -83 312 C-83.33 311.67 -83.66 311.34 -84 311 C-111.15798705 306.8147984 -143.00532824 306.54196392 -168 319 C-168.69609375 319.29519531 -169.3921875 319.59039062 -170.109375 319.89453125 C-175.57231067 322.28729707 -179.44869522 325.93495666 -183.703125 330.07421875 C-185.94301992 331.95222589 -187.10471712 332.81904482 -190 333 C-192.75 331.1875 -192.75 331.1875 -195 329 C-195 328.34 -195 327.68 -195 327 C-195.556875 326.7525 -196.11375 326.505 -196.6875 326.25 C-199 325 -199 325 -201.625 322.875 C-203.75730599 320.7934519 -203.75730599 320.7934519 -206 321 C-206 320.34 -206 319.68 -206 319 C-206.928125 319.185625 -207.85625 319.37125 -208.8125 319.5625 C-212 320 -212 320 -215 319 C-217.92300319 319.4134416 -220.7904321 319.88712736 -223.6875 320.4375 C-229.56320474 321.55227745 -235.01110631 322.17111125 -241 322 C-239.73383221 318.20149662 -238.43339465 317.74407668 -235.0625 315.6875 C-234.05832031 315.07132812 -233.05414063 314.45515625 -232.01953125 313.8203125 C-231.02308594 313.21960938 -230.02664062 312.61890625 -229 312 C-228.19949219 311.50242187 -227.39898437 311.00484375 -226.57421875 310.4921875 C-211.19354222 301.03113269 -195.6985034 294.44409736 -178.578125 288.859375 C-176.44034591 288.14678197 -174.34754806 287.38327967 -172.25 286.5625 C-168.3604962 285.08078427 -164.40555212 283.81458036 -160.4375 282.5625 C-159.75228271 282.34384277 -159.06706543 282.12518555 -158.36108398 281.89990234 C-154.86375607 280.80625157 -151.38988472 279.8324403 -147.8046875 279.0703125 C-139.884674 277.68101162 -139.884674 277.68101162 -134 272.75 C-133.27525967 271.19239275 -132.61938376 269.60242087 -132 268 C-131.45339308 266.74369679 -130.9007601 265.49000672 -130.34375 264.23828125 C-129.4140021 262.14280883 -128.49291655 260.04576393 -127.59936523 257.93457031 C-125.69131335 253.43276862 -123.57774424 249.26068594 -120.84765625 245.1875 C-118.65564858 239.53070601 -119.83177227 234.90087068 -122.046875 229.50390625 C-122.93299987 227.51671847 -123.8344613 225.53630886 -124.75 223.5625 C-125.1934375 222.57701172 -125.636875 221.59152344 -126.09375 220.57617188 C-126.97166883 218.62796671 -127.85552548 216.68242528 -128.74560547 214.73974609 C-131.41145085 208.91722432 -133.98334633 203.05342581 -136.53564453 197.18041992 C-140.38386032 188.32997134 -144.40196921 179.56525543 -148.484375 170.8203125 C-148.94328125 169.82773438 -149.4021875 168.83515625 -149.875 167.8125 C-150.28492188 166.93207031 -150.69484375 166.05164063 -151.1171875 165.14453125 C-152 163 -152 163 -152 161 C-169.84321577 171.25956738 -169.84321577 171.25956738 -187.625 181.625 C-188.58780884 182.18936768 -188.58780884 182.18936768 -189.57006836 182.76513672 C-192.11740451 184.26595042 -194.64784115 185.77131493 -197.12792969 187.38183594 C-197.83594727 187.84106445 -198.54396484 188.30029297 -199.2734375 188.7734375 C-199.91458496 189.19802246 -200.55573242 189.62260742 -201.21630859 190.06005859 C-203 191 -203 191 -206 191 C-206 191.66 -206 192.32 -206 193 C-206.73605469 193.39832031 -207.47210938 193.79664063 -208.23046875 194.20703125 C-209.20628906 194.73683594 -210.18210938 195.26664063 -211.1875 195.8125 C-212.15042969 196.33457031 -213.11335938 196.85664063 -214.10546875 197.39453125 C-215.9926517 198.44126835 -217.85017201 199.54396072 -219.66796875 200.70703125 C-222 202 -222 202 -225.125 201.875 C-228.1179967 200.96408796 -229.30185085 200.59191186 -231 198 C-232.242718 193.44336733 -231.90342103 189.60744726 -231 185 C-230.67 184.67 -230.34 184.34 -230 184 C-229.55023512 181.21024219 -229.14223817 178.42291094 -228.75 175.625 C-226.41595208 160.00995316 -221.9138983 144.97569004 -217 130 C-216.64550781 128.865625 -216.29101562 127.73125 -215.92578125 126.5625 C-209.59452269 107.36878985 -197.71891063 83.31484195 -182 70 C-181.34 70 -180.68 70 -180 70 C-179.505 68.515 -179.505 68.515 -179 67 C-169.1316846 58.406804 -156.2012841 55.96507935 -143.5546875 56.5 C-137.45429774 56.99716274 -132.3319954 59.07228206 -127 62 C-125.6680171 62.66936072 -124.33518688 63.33705338 -123 64 C-123 64.66 -123 65.32 -123 66 C-122.11054688 66.41185547 -122.11054688 66.41185547 -121.203125 66.83203125 C-108.79242227 73.41146408 -103.41648853 90.62446854 -99 103 C-98.64748169 103.90987671 -98.64748169 103.90987671 -98.2878418 104.83813477 C-96.35111679 109.84046474 -94.82974662 114.88439665 -93.4375 120.0625 C-93.01975013 121.59511176 -92.60178435 123.12766469 -92.18359375 124.66015625 C-91.98435303 125.39451904 -91.7851123 126.12888184 -91.57983398 126.88549805 C-91.04629408 128.83117766 -90.49283029 130.7713648 -89.9375 132.7109375 C-88.49355687 137.77677133 -87.23129517 142.87879221 -86 148 C-85.75121094 149.01578125 -85.50242187 150.0315625 -85.24609375 151.078125 C-80.66969372 170.91717855 -79.6222166 189.91239858 -80.8605957 210.22705078 C-81.06703964 215.81441437 -81 221.40882383 -81 227 C-70.77 227.33 -60.54 227.66 -50 228 C-50.7425 225.050625 -51.485 222.10125 -52.25 219.0625 C-55.22179985 206.8156436 -57.23797514 194.47166699 -59 182 C-59.12004395 181.18917969 -59.24008789 180.37835938 -59.36376953 179.54296875 C-66.09553834 133.07269584 -57.94975093 81.81084201 -38.10913086 39.42041016 C-36.75317049 36.46135421 -35.64481088 33.44352975 -34.5625 30.375 C-32.40293843 24.64568997 -29.66819453 19.88090365 -26 15 C-25.48695313 14.25878906 -24.97390625 13.51757812 -24.4453125 12.75390625 C-23.96835937 12.17511719 -23.49140625 11.59632812 -23 11 C-22.34 11 -21.68 11 -21 11 C-20.814375 10.443125 -20.62875 9.88625 -20.4375 9.3125 C-18.3191138 5.90466132 -15.33534181 4.14036674 -12 2 C-11.0409375 1.3503125 -11.0409375 1.3503125 -10.0625 0.6875 C-6.75068544 -0.41643819 -3.39546874 -0.7461179 0 0 Z " fill="#3B134E" transform="translate(428,14)"/>
<path d="M0 0 C6.2537585 2.17630796 11.44061982 7.13934427 14.953125 12.6796875 C17.4177797 20.08646224 17.2272334 27.38773891 17.18359375 35.125 C17.18239734 36.54059812 17.18194976 37.95619705 17.1822052 39.37179565 C17.18064572 42.33889756 17.1724108 45.30587794 17.15893555 48.27294922 C17.14216214 52.00648958 17.13819819 55.73989536 17.13876152 59.47346878 C17.13809293 75.8986828 16.9140123 92.27715323 15.953125 108.6796875 C17.66242187 108.88331909 17.66242187 108.88331909 19.40625 109.09106445 C23.66418318 109.60101341 27.92041309 110.12414633 32.17626953 110.65112305 C34.01275001 110.8766869 35.84966411 111.0987506 37.68701172 111.31713867 C40.33945586 111.6330429 42.99004633 111.96181826 45.640625 112.29296875 C46.45241211 112.38685379 47.26419922 112.48073883 48.10058594 112.57746887 C54.16937308 113.35435854 60.29841125 114.36671862 65.046875 118.50390625 C65.74296875 119.42623047 65.74296875 119.42623047 66.453125 120.3671875 C66.9378125 120.98980469 67.4225 121.61242187 67.921875 122.25390625 C68.2621875 122.72441406 68.6025 123.19492187 68.953125 123.6796875 C69.28113256 117.78462291 69.59082506 111.88875262 69.890625 105.9921875 C69.93736359 105.08051819 69.98410217 104.16884888 70.03225708 103.22955322 C70.63353737 91.27770041 71.0382067 79.33724567 71.203125 67.37109375 C71.22033096 66.17851456 71.23753693 64.98593536 71.25526428 63.75721741 C71.33653731 57.87237608 71.3980723 51.98806358 71.43530273 46.1027832 C71.46038006 43.92789255 71.48583412 41.7530062 71.51171875 39.578125 C71.51175903 38.59328629 71.51179932 37.60844757 71.51184082 36.59376526 C71.6100526 29.81151161 72.41158517 23.98023923 76.6796875 18.4375 C77.30617188 17.89867187 77.93265625 17.35984375 78.578125 16.8046875 C79.18914062 16.25039063 79.80015625 15.69609375 80.4296875 15.125 C89.78221059 9.76829173 99.4567148 12.45720376 109.453125 14.2421875 C111.1117992 14.5261995 112.77065554 14.80914977 114.4296875 15.09106445 C126.83196974 17.21935677 139.19942605 19.53475211 151.50634766 22.16113281 C153.71864124 22.62999248 155.93397827 23.07661302 158.15234375 23.515625 C163.88992404 24.71068652 168.51276821 25.73270369 172.953125 29.6796875 C173.283125 30.6696875 173.613125 31.6596875 173.953125 32.6796875 C174.613125 32.6796875 175.273125 32.6796875 175.953125 32.6796875 C180.10750346 39.85711815 180.95993253 46.46953539 179.953125 54.6796875 C178.45174702 60.21435308 175.57214501 63.52421142 170.9296875 66.76953125 C165.78102246 69.14035922 160.96451332 68.6111988 155.5 67.75390625 C154.79973694 67.64625443 154.09947388 67.5386026 153.37799072 67.4276886 C151.15156765 67.08293145 148.92747849 66.72502668 146.703125 66.3671875 C145.22538605 66.13786083 143.7475221 65.90933818 142.26953125 65.68164062 C134.79580915 64.51908253 127.35037836 63.26691123 119.953125 61.6796875 C119.623125 64.3196875 119.293125 66.9596875 118.953125 69.6796875 C120.24863281 69.86144531 121.54414062 70.04320312 122.87890625 70.23046875 C127.59371335 70.89489085 132.30646574 71.57293259 137.01855469 72.25634766 C138.91715815 72.53023937 140.81622285 72.80096053 142.71582031 73.06787109 C145.275646 73.42850952 147.83319084 73.80251104 150.390625 74.1796875 C151.1638208 74.28579346 151.9370166 74.39189941 152.73364258 74.5012207 C160.06539453 75.60886059 165.04283748 78.02114558 169.6953125 83.8671875 C174.4314125 90.69187818 173.49247411 99.15203749 172.265625 106.9921875 C171.25957509 111.5194121 169.64811277 113.75806926 165.953125 116.6796875 C164.839375 117.824375 164.839375 117.824375 163.703125 118.9921875 C157.82673231 122.59815574 149.92026082 120.55386775 143.41796875 119.3671875 C142.65384171 119.23401123 141.88971466 119.10083496 141.10243225 118.96362305 C138.69717904 118.54275882 136.29394662 118.1114306 133.890625 117.6796875 C132.24556563 117.38992628 130.6003841 117.10085765 128.95507812 116.8125 C124.95297263 116.1095481 120.95264184 115.39721513 116.953125 114.6796875 C116.953125 118.3096875 116.953125 121.9396875 116.953125 125.6796875 C119.49966797 125.85371094 119.49966797 125.85371094 122.09765625 126.03125 C129.03628227 126.61176032 135.80335057 127.76333044 142.640625 129.0546875 C144.37795898 129.36792969 144.37795898 129.36792969 146.15039062 129.6875 C163.33466927 132.88820607 163.33466927 132.88820607 167.328125 137.30859375 C168.1325 138.76072266 168.1325 138.76072266 168.953125 140.2421875 C169.51 141.21285156 170.066875 142.18351563 170.640625 143.18359375 C174.59728282 150.70830907 173.97155009 161.21811692 171.703125 169.3671875 C170.39368894 173.04726137 168.79646369 175.92806941 165.953125 178.6796875 C165.293125 178.6796875 164.633125 178.6796875 163.953125 178.6796875 C163.953125 179.3396875 163.953125 179.9996875 163.953125 180.6796875 C158.08686542 182.63510736 152.63466902 181.57344641 146.73828125 180.17578125 C146.05759583 180.01717117 145.3769104 179.8585611 144.67559814 179.69514465 C142.45389177 179.17618063 140.23480581 178.64683742 138.015625 178.1171875 C134.87581873 177.37799963 131.73485565 176.64380047 128.59375 175.91015625 C127.79620804 175.72317169 126.99866608 175.53618713 126.17695618 175.34353638 C120.73506278 174.07419911 115.28118168 172.87851195 109.8125 171.73046875 C108.72375832 171.50024269 108.72375832 171.50024269 107.61302185 171.2653656 C103.42668725 170.38043164 103.42668725 170.38043164 99.23587036 169.51705933 C80.43509606 165.69127816 80.43509606 165.69127816 75.078125 158.1171875 C74.24667969 156.97056641 74.24667969 156.97056641 73.3984375 155.80078125 C72.23991831 154.10057606 71.09436109 152.39154163 69.953125 150.6796875 C69.581875 151.4221875 69.210625 152.1646875 68.828125 152.9296875 C66.43947391 156.43304243 64.81636484 157.84973179 60.953125 159.6796875 C49.8368806 161.10513037 38.18966669 158.15507334 27.265625 156.3046875 C23.45008608 155.66656206 19.63360017 155.03439636 15.81640625 154.40625 C14.4315226 154.17717201 14.4315226 154.17717201 13.0186615 153.94346619 C6.47003544 152.87806283 -0.08264642 152.00418778 -6.68217468 151.32156372 C-14.93553239 150.44789674 -21.11767838 148.74363859 -27.046875 142.6796875 C-31.42555998 136.82957451 -33.18266614 131.99280312 -33.15608215 124.63905334 C-33.1548233 123.6479808 -33.15356445 122.65690826 -33.15226746 121.63580322 C-33.14560562 120.55981873 -33.13894379 119.48383423 -33.13208008 118.37524414 C-33.12889771 117.23323044 -33.12571533 116.09121674 -33.12243652 114.91459656 C-33.10985065 111.13962529 -33.08897347 107.36476789 -33.06640625 103.58984375 C-33.05944921 102.30007566 -33.05249218 101.01030758 -33.04532433 99.68145561 C-33.01179677 93.56251266 -32.97410153 87.44362636 -32.92995912 81.32475096 C-32.87921791 74.27210171 -32.84498068 67.21962284 -32.82477838 60.16682154 C-32.80606805 54.04829991 -32.76563795 47.93009233 -32.7175045 41.81173515 C-32.70015355 39.21264634 -32.68946707 36.61350421 -32.68555641 34.01436043 C-32.67848465 30.38034051 -32.64658926 26.74733597 -32.60864258 23.11352539 C-32.6121019 22.03956512 -32.61556122 20.96560486 -32.61912537 19.85910034 C-32.50648915 12.5698381 -31.38290127 9.03682786 -26.1953125 3.81640625 C-25.61007812 3.33816406 -25.02484375 2.85992187 -24.421875 2.3671875 C-23.83148438 1.87605469 -23.24109375 1.38492187 -22.6328125 0.87890625 C-16.75450352 -3.56602197 -6.75980736 -1.77505733 0 0 Z " fill="#3B134E" transform="translate(528.046875,339.3203125)"/>
<path d="M0 0 C2.41820354 -0.00436236 4.83456009 -0.04076476 7.25244141 -0.07861328 C20.90144411 -0.17794339 33.5469072 1.61118683 45.18603516 9.37060547 C45.18603516 10.03060547 45.18603516 10.69060547 45.18603516 11.37060547 C45.84603516 11.37060547 46.50603516 11.37060547 47.18603516 11.37060547 C51.00541988 18.67725451 52.74277695 25.5937805 50.53759766 33.77685547 C48.29718826 39.36830457 44.94158214 43.6632649 40.18603516 47.37060547 C31.18796358 50.36996266 22.91871496 47.99379008 14.41259766 44.56201172 C5.17124388 41.14964743 -4.68322697 41.07287764 -13.65771484 45.19091797 C-20.77353789 49.08399507 -22.56826823 54.98402493 -24.81396484 62.37060547 C-25.00861328 62.97904297 -25.20326172 63.58748047 -25.40380859 64.21435547 C-27.75964784 76.59933892 -25.42929279 88.58374527 -20.18896484 99.87060547 C-15.19573559 105.12663627 -10.20157492 107.40041132 -2.93505859 107.67919922 C1.7800056 107.7329849 6.476299 107.58820108 11.18603516 107.37060547 C11.18603516 105.39060547 11.18603516 103.41060547 11.18603516 101.37060547 C10.30560547 101.39380859 9.42517578 101.41701172 8.51806641 101.44091797 C7.35662109 101.45896484 6.19517578 101.47701172 4.99853516 101.49560547 C3.84998047 101.51880859 2.70142578 101.54201172 1.51806641 101.56591797 C-2.95845987 101.30351901 -5.60383305 100.58311941 -8.79833984 97.38232422 C-9.38099609 96.61533203 -9.96365234 95.84833984 -10.56396484 95.05810547 C-11.15693359 94.29884766 -11.74990234 93.53958984 -12.36083984 92.75732422 C-16.38275727 86.15143297 -15.3565451 76.85974138 -14.81396484 69.37060547 C-13.25383707 63.91461576 -8.94282774 60.06022763 -4.81396484 56.37060547 C1.48019419 54.27255246 8.88121425 55.06230334 15.48999023 55.02050781 C17.40352571 55.00398249 19.31700032 54.97673778 21.23022461 54.93847656 C24.00097406 54.8834016 26.77027904 54.86178574 29.54150391 54.84716797 C30.81068916 54.81316391 30.81068916 54.81316391 32.10551453 54.7784729 C38.26166906 54.80011866 42.46093323 56.37562728 47.18603516 60.37060547 C54.78628608 68.84179805 53.34902798 80.4719705 53.38916016 91.16748047 C53.39486023 92.35988342 53.4005603 93.55228638 53.40643311 94.78082275 C53.41582627 97.28518805 53.42239428 99.7895654 53.42626953 102.29394531 C53.43604152 106.12309965 53.46714564 109.95173147 53.49853516 113.78076172 C53.50506008 116.22216481 53.51031255 118.6635717 53.51416016 121.10498047 C53.52650696 122.24570007 53.53885376 123.38641968 53.55157471 124.56170654 C53.53276131 131.25940377 53.05471313 135.9281919 48.62353516 141.24560547 C47.18603516 142.37060547 47.18603516 142.37060547 45.18603516 142.37060547 C45.18603516 143.03060547 45.18603516 143.69060547 45.18603516 144.37060547 C27.44589978 150.13724997 11.3352356 152.55820398 -7.43505859 152.5559082 C-9.44438379 152.55811141 -11.45317216 152.57641189 -13.46240234 152.59521484 C-31.7725732 152.62235443 -45.83201623 148.2510745 -59.55615234 135.78857422 C-60.81396484 134.37060547 -60.81396484 134.37060547 -60.81396484 132.37060547 C-61.47396484 132.37060547 -62.13396484 132.37060547 -62.81396484 132.37060547 C-78.55026655 111.64364808 -79.55544926 79.2614716 -76.28271484 54.42529297 C-73.74362165 40.98465832 -68.32702784 25.55767249 -56.81396484 17.37060547 C-56.18361328 16.72994141 -55.55326172 16.08927734 -54.90380859 15.42919922 C-49.26774981 9.87741795 -42.31163715 6.95578595 -34.87646484 4.62060547 C-34.24514648 4.42217041 -33.61382812 4.22373535 -32.96337891 4.01928711 C-30.92393869 3.41536266 -28.87926819 2.87916614 -26.81396484 2.37060547 C-26.05100098 2.18224121 -25.28803711 1.99387695 -24.50195312 1.79980469 C-16.37354414 0.05900284 -8.27578604 -0.00166481 0 0 Z " fill="#3B134E" transform="translate(305.81396484375,330.62939453125)"/>
<path d="M0 0 C0.72567169 0.00237671 1.45134338 0.00475342 2.19900513 0.00720215 C17.25643719 0.0843655 31.12689064 1.88693024 44.875 8.4375 C45.83019531 8.89189453 45.83019531 8.89189453 46.8046875 9.35546875 C48.17277195 10.0269019 49.52641321 10.72771748 50.875 11.4375 C50.875 12.0975 50.875 12.7575 50.875 13.4375 C51.865 13.7675 52.855 14.0975 53.875 14.4375 C55.4453125 16.328125 55.4453125 16.328125 57 18.6875 C57.51820313 19.45578125 58.03640625 20.2240625 58.5703125 21.015625 C61.99226744 27.36775692 61.72066277 35.26950952 59.75 42.0625 C57.61471597 47.86843896 53.98239338 52.03257108 48.875 55.4375 C39.47744389 56.6485853 32.97077033 55.63690264 24.69921875 50.9765625 C13.94239813 45.11461599 3.53611664 46.41554256 -8.125 48.4375 C-8.125 49.0975 -8.125 49.7575 -8.125 50.4375 C-8.99125 51.2109375 -8.99125 51.2109375 -9.875 52 C-14.84887977 57.38836975 -16.82377182 64.19492692 -17.125 71.4375 C-17.16496094 72.30503906 -17.20492187 73.17257812 -17.24609375 74.06640625 C-17.3897749 80.14327389 -16.83714825 85.60549501 -15.125 91.4375 C-14.91875 92.15035156 -14.7125 92.86320312 -14.5 93.59765625 C-12.47166098 99.76334588 -9.19684396 103.44455337 -3.5 106.625 C3.13003346 109.71399286 10.70976813 111.37404915 17.875 109.4375 C18.205 107.7875 18.535 106.1375 18.875 104.4375 C17.740625 104.499375 16.60625 104.56125 15.4375 104.625 C9.42472412 104.56126033 4.19172366 103.72391138 -0.21484375 99.375 C-6.80355072 91.18290626 -6.78045216 83.6844021 -6.125 73.4375 C-5.40379031 70.71199825 -4.55522276 68.88079722 -3.125 66.4375 C-2.465 66.4375 -1.805 66.4375 -1.125 66.4375 C-0.135 64.4575 -0.135 64.4575 0.875 62.4375 C1.535 62.4375 2.195 62.4375 2.875 62.4375 C2.875 61.7775 2.875 61.1175 2.875 60.4375 C13.14246669 60.03101671 23.30938151 60.53485134 33.53851318 61.44760132 C35.53767166 61.62282384 37.53863844 61.77700132 39.53955078 61.9309082 C51.21919122 63.04824189 51.21919122 63.04824189 55.875 68.4375 C57.51953125 70.53515625 57.51953125 70.53515625 58.6875 72.5 C59.08582031 73.15097656 59.48414063 73.80195313 59.89453125 74.47265625 C61.74480285 78.18057106 62.00276877 81.5690463 62.0078125 85.6796875 C62.00998779 86.73188477 62.01216309 87.78408203 62.0144043 88.86816406 C62.00965088 90.00479492 62.00489746 91.14142578 62 92.3125 C61.99589111 93.49038086 61.99178223 94.66826172 61.98754883 95.88183594 C61.93096254 105.1522511 61.79376175 114.41994162 61.5625 123.6875 C61.54010254 124.95319824 61.51770508 126.21889648 61.49462891 127.52294922 C61.30646574 133.83109793 61.09202282 138.92598296 57.875 144.4375 C55.6875 145.875 55.6875 145.875 53.875 146.4375 C53.875 147.0975 53.875 147.7575 53.875 148.4375 C40.65847379 155.68079139 23.49706266 153.75629862 8.875 153.4375 C8.06144043 153.42348145 7.24788086 153.40946289 6.40966797 153.39501953 C-12.14393892 153.00572689 -30.90586704 149.12154869 -45.625 137.0625 C-48.125 134.4375 -48.125 134.4375 -48.125 132.4375 C-49.02412109 132.04884766 -49.02412109 132.04884766 -49.94140625 131.65234375 C-58.79406407 126.72716203 -62.61229705 113.6485046 -65.375 104.625 C-67.68009317 95.50686935 -67.91827885 86.3600379 -68.078125 76.99072266 C-68.11915237 74.75601334 -68.19269683 72.5261691 -68.28125 70.29296875 C-68.75623974 51.70899503 -64.72825255 33.2695407 -52.03515625 19.10546875 C-48.23479673 15.18140856 -48.23479673 15.18140856 -46.125 13.4375 C-45.465 13.4375 -44.805 13.4375 -44.125 13.4375 C-44.125 12.7775 -44.125 12.1175 -44.125 11.4375 C-41.71589248 10.15040068 -39.29909897 8.88332774 -36.875 7.625 C-36.21242188 7.26857422 -35.54984375 6.91214844 -34.8671875 6.54492188 C-23.66533589 0.7854793 -12.36191488 -0.10634814 0 0 Z " fill="#3B134E" transform="translate(429.125,330.5625)"/>
<path d="M0 0 C6.54296193 8.17870242 4.28039764 24.53653577 4.5625 34.5625 C4.58334656 35.28134369 4.60419312 36.00018738 4.62567139 36.74081421 C4.96210386 48.5975444 5.10621471 60.45121965 5.125 72.3125 C5.1275882 73.05895782 5.13017639 73.80541565 5.13284302 74.57449341 C5.19564883 97.39888445 3.86167307 118.746195 -13 136 C-13.66 136 -14.32 136 -15 136 C-15 136.66 -15 137.32 -15 138 C-16.65 138.66 -18.3 139.32 -20 140 C-20 140.66 -20 141.32 -20 142 C-32.31493293 148.8094335 -44.50350568 152.15776039 -58.3125 154.3125 C-59.40949219 154.48402588 -60.50648438 154.65555176 -61.63671875 154.83227539 C-74.57293045 156.71064935 -89.6896917 157.76596019 -101 150 C-104.16342985 147.49706649 -107.24219512 144.94931911 -110 142 C-110 141.34 -110 140.68 -110 140 C-110.66 140 -111.32 140 -112 140 C-121.64926822 124.08531653 -122.94293405 107.96360397 -123.53515625 89.671875 C-123.57813339 88.4064386 -123.62111053 87.1410022 -123.66539001 85.83721924 C-123.75521931 83.16463073 -123.84370323 80.49203887 -123.92993164 77.81933594 C-124.01693445 75.12781254 -124.10704835 72.43642648 -124.20043945 69.74511719 C-124.4678519 62.01817981 -124.70969483 54.29130572 -124.90753174 46.56225586 C-124.96769388 44.24456411 -125.03297355 41.92699765 -125.10418701 39.60961914 C-125.19366741 36.55746541 -125.25578903 33.50610354 -125.30859375 30.453125 C-125.33856949 29.57243347 -125.36854523 28.69174194 -125.39942932 27.78436279 C-125.45289453 22.32381851 -124.57978638 19.3703102 -121 15 C-120.55398437 14.40832031 -120.10796875 13.81664062 -119.6484375 13.20703125 C-114.03575646 7.06062901 -106.03261632 5.73023785 -98 5 C-97.31421875 4.92394531 -96.6284375 4.84789062 -95.921875 4.76953125 C-89.5699073 4.35865222 -84.05840737 6.07379934 -79 10 C-76.13776686 14.42751689 -75.51024091 18.4052746 -75.375 23.5625 C-75.34341797 24.3455249 -75.31183594 25.1285498 -75.27929688 25.93530273 C-75.166095 28.95651646 -75.08147361 31.97775795 -75 35 C-74.96128294 36.40494847 -74.92254461 37.80989635 -74.88378906 39.21484375 C-74.53257359 52.08512194 -74.53257359 52.08512194 -74.39208984 58.22290039 C-74.20849279 66.03602677 -73.96651239 73.84578062 -73.59375 81.65234375 C-73.56478638 82.37257217 -73.53582275 83.0928006 -73.50598145 83.83485413 C-73.31716104 87.44683381 -72.88081393 90.76797401 -71.96289062 94.27172852 C-71 98 -71 98 -71 102 C-70.34 102 -69.68 102 -69 102 C-69 102.66 -69 103.32 -69 104 C-63.90811275 105.49244971 -60.23234079 106.51156512 -55 105 C-53.31008021 104.0398183 -51.63790712 103.04644066 -50 102 C-49.34 102 -48.68 102 -48 102 C-47.51779737 100.12577848 -47.03938167 98.25058246 -46.5625 96.375 C-46.29566406 95.33085937 -46.02882813 94.28671875 -45.75390625 93.2109375 C-44.12982661 86.29387294 -43.93508417 79.99121791 -44.12109375 72.91796875 C-44.14470474 71.83155594 -44.16831573 70.74514313 -44.19264221 69.62580872 C-44.26895445 66.14622869 -44.35270771 62.66688287 -44.4375 59.1875 C-44.62378763 51.26886028 -44.79797395 43.3501972 -44.93865967 35.43060303 C-44.98027601 33.10311066 -45.02518459 30.77567528 -45.07305908 28.44830322 C-45.13914819 25.00331226 -45.18379612 21.55867477 -45.22265625 18.11328125 C-45.24565292 17.06794724 -45.2686496 16.02261322 -45.29234314 14.94560242 C-45.35410305 6.03208212 -45.35410305 6.03208212 -42 2 C-31.65060543 -8.32208746 -11.1923057 -8.47550121 0 0 Z " fill="#3B134E" transform="translate(222,344)"/>
<path d="M0 0 C3.7021344 2.90167291 4.73012223 5.53108563 6 10 C6.31643677 12.91569519 6.31643677 12.91569519 6.41064453 16.00073242 C6.45051483 17.16978622 6.49038513 18.33884003 6.53146362 19.5433197 C6.56490875 20.80132889 6.59835388 22.05933807 6.6328125 23.35546875 C6.67455597 24.67418472 6.71629944 25.9929007 6.75930786 27.35157776 C6.87058577 30.89874189 6.96970067 34.44614043 7.06526184 37.99375916 C7.12500277 40.18760179 7.18769907 42.38134059 7.25134277 44.57507324 C7.73494206 61.29656791 8.19155271 78.02079184 8.25 94.75 C8.26377686 96.72842896 8.26377686 96.72842896 8.27783203 98.74682617 C8.22849478 113.60029824 5.68858603 124.82126158 -2.625 137.0625 C-3.02146729 137.64765381 -3.41793457 138.23280762 -3.82641602 138.83569336 C-4.82975118 140.26370488 -5.90923732 141.6375995 -7 143 C-7.66 143 -8.32 143 -9 143 C-9 143.66 -9 144.32 -9 145 C-17.12769383 151.76197478 -26.00894371 155.89880057 -36 159 C-37.04929687 159.35449219 -38.09859375 159.70898438 -39.1796875 160.07421875 C-50.93135895 163.94168568 -50.93135895 163.94168568 -57 163 C-59.74598513 161.57440236 -61.63519987 160.06920011 -64 158 C-64 157.34 -64 156.68 -64 156 C-64.66 156 -65.32 156 -66 156 C-68.08924898 151.82150204 -67.27370247 146.40354142 -67.3125 141.8125 C-67.35600586 140.12543945 -67.35600586 140.12543945 -67.40039062 138.40429688 C-67.45206415 131.64301507 -67.01090761 127.50003189 -63 122 C-62.1028125 120.63875 -62.1028125 120.63875 -61.1875 119.25 C-57.90226269 115.87089877 -53.95180291 114.70392892 -49.6171875 113.140625 C-48.81539062 112.82609375 -48.01359375 112.5115625 -47.1875 112.1875 C-46.43855469 111.91292969 -45.68960938 111.63835937 -44.91796875 111.35546875 C-42.08388038 109.35255904 -41.86521702 107.32765654 -41 104 C-40.88123874 101.3911281 -40.85932698 98.91589699 -40.95654297 96.31738281 C-40.97575806 95.57179108 -40.99497314 94.82619934 -41.01477051 94.05801392 C-41.08043841 91.60598135 -41.16128441 89.15469811 -41.2421875 86.703125 C-41.29086843 84.98690501 -41.33855143 83.27065646 -41.38528442 81.55438232 C-41.51068824 77.04029483 -41.64877541 72.52668475 -41.78979492 68.01306152 C-41.95815685 62.55335917 -42.11214389 57.09323691 -42.2677784 51.63315964 C-42.38924401 47.37911123 -42.51292822 43.12517027 -42.64376831 38.87139893 C-42.77484151 34.58118723 -42.89204064 30.29085924 -43 26 C-43.02773499 24.95001831 -43.05546997 23.90003662 -43.08404541 22.8182373 C-43.09772156 21.93559204 -43.11139771 21.05294678 -43.12548828 20.14355469 C-43.13830841 19.4241571 -43.15112854 18.70475952 -43.16433716 17.96356201 C-42.8814271 14.58324646 -41.55749747 11.98520349 -40 9 C-39.34 9 -38.68 9 -38 9 C-37.731875 8.401875 -37.46375 7.80375 -37.1875 7.1875 C-34.62274413 2.46294971 -31.02947118 0.62476565 -26 -1 C-16.85048335 -3.20897421 -8.6099148 -4.63610797 0 0 Z " fill="#3B134E" transform="translate(86,362)"/>
<path d="" fill="#FBFDFC" transform="translate(0,0)"/>
</svg>
